<svg width="24" height="24" viewBox="0 0 24 24" fill="none" xmlns="http://www.w3.org/2000/svg">
<path d="M21.9179 1.50558C22.1628 1.50558 22.3353 1.55117 22.4251 1.5858C22.5329 1.87337 22.6776 2.90395 21.6143 3.96993L16.1902 9.40372L16.2292 10.0779C16.3115 11.4886 16.4641 14.0169 16.5956 16.1843C16.7117 18.1133 16.8218 19.9352 16.8289 20.0902C16.8326 20.1968 16.8342 20.222 16.735 20.3417C16.5133 20.6116 16.0996 21.0689 15.751 21.4479C15.2103 19.9886 14.0742 16.9062 13.4468 15.1808L12.6405 12.9608L10.9727 14.6316L7.90578 17.586L7.47859 18.0132L7.46544 18.6174C7.4553 19.0996 7.45755 19.9649 7.45868 20.7279C7.46018 21.2594 7.46171 21.7423 7.45795 22.0084C7.45119 22.0208 7.56052 22.0355 7.55038 22.0532C7.485 21.9482 7.41475 21.8349 7.34036 21.7171C6.72194 20.729 5.86607 19.3623 5.60495 18.9358L5.41409 18.6234L5.10075 18.4337C3.96122 17.7441 2.69883 16.948 1.92862 16.4508C1.9553 16.4354 1.97707 16.517 1.99473 16.5076H2.0447C2.28703 16.5076 2.68754 16.5129 3.13651 16.5193C3.72374 16.5272 4.38988 16.537 4.89972 16.537C5.09509 16.537 5.26867 16.5355 5.40843 16.5324L6.01144 16.5185L6.43788 16.0913L9.39058 13.0398L11.0527 11.3753L8.84695 10.5623C7.18932 9.95139 4.01419 8.76343 2.52901 8.20447C2.90996 7.8529 3.36907 7.43547 3.63696 7.21337C3.71172 7.15164 3.76998 7.12004 3.81016 7.12004L3.86313 7.12155C4.02882 7.12945 6.08659 7.26421 8.07595 7.39444C10.1878 7.53258 12.5713 7.68841 13.9265 7.77461L14.6039 7.81715L20.0288 2.38185C20.7907 1.61963 21.5391 1.50558 21.9179 1.50558ZM21.9179 2.35236e-05C21.0301 2.35236e-05 19.9402 0.341753 18.9667 1.3174L14.0213 6.27165C11.2357 6.09511 4.10176 5.62235 3.9248 5.61745C3.88663 5.61552 3.84842 5.61451 3.8102 5.61442C3.56937 5.61442 3.15346 5.66072 2.68007 6.05256C2.12439 6.51292 0.965702 7.60452 0.965702 7.60452C0.686174 7.8853 0.544531 8.2331 0.578345 8.56019C0.599009 8.75781 0.706086 9.11803 1.19038 9.30776C1.48456 9.42332 6.16628 11.1781 8.32815 11.975L5.37544 15.0265C5.24467 15.0295 5.08274 15.031 4.89977 15.031C3.99956 15.031 2.6038 15.0016 2.04434 15.0016C1.97033 15.0016 1.91097 15.0016 1.86886 15.0032C1.69867 15.0084 1.34625 14.9245 0.416742 15.7029L0.350617 15.7646C0.0718405 16.0439 0.00646684 16.3225 0.000455478 16.5065C-0.00555589 16.6962 0.045165 16.9695 0.319058 17.1893C0.483619 17.3226 2.59323 18.6757 4.32335 19.7225C4.73816 20.4005 6.64677 23.4395 6.74633 23.6044C6.89176 23.8506 7.12956 23.991 7.41399 24H7.43766C7.71419 24 7.99822 23.8626 8.27625 23.592C9.06299 22.6702 8.95441 22.2885 8.95776 22.1281C8.97016 21.6253 8.94912 19.4948 8.96716 18.6501L12.0337 15.6954C12.8174 17.8522 14.5307 22.4944 14.6453 22.7898C14.8361 23.275 15.1957 23.3816 15.3929 23.4015C15.4252 23.4053 15.4583 23.4068 15.4906 23.4068C15.7871 23.4068 16.0944 23.2671 16.3461 23.015C16.3461 23.015 17.4323 21.8602 17.8937 21.2982C18.3558 20.7366 18.3378 20.257 18.3288 20.0308C18.325 19.8742 17.8899 12.7658 17.7283 9.98983L22.6749 5.03405C24.428 3.27696 24.1493 1.15971 23.4982 0.508524C23.2107 0.219068 22.6288 4.7049e-05 21.9179 2.35236e-05Z" fill="#FF5900"/>
</svg>
