<svg width="141" height="134" viewBox="0 0 141 134" fill="none" xmlns="http://www.w3.org/2000/svg">
<path d="M140.373 27.3614V27.3611C140.371 23.7435 138.853 20.2805 136.163 17.7317C133.474 15.1838 129.832 13.7569 126.041 13.7569H107.798V5.73476C107.798 4.37622 107.229 3.0791 106.224 2.12707C105.221 1.17591 103.865 0.645914 102.457 0.645914C101.049 0.645914 99.6934 1.17591 98.69 2.12707C97.6856 3.0791 97.116 4.37622 97.116 5.73476V13.7569H46.1284V5.67576C46.1284 4.31722 45.5588 3.0201 44.5544 2.06807C43.5509 1.11691 42.1954 0.586914 40.7872 0.586914C39.3803 0.586913 38.0259 1.11592 37.0227 2.06551C36.0185 3.01595 35.4481 4.31118 35.446 5.66846V5.66921V13.7569H15.3847C11.5933 13.7569 7.95196 15.1838 5.2626 17.7317C2.57233 20.2805 1.05464 23.7435 1.05273 27.3611V27.3614L1.05273 119.092L1.05273 119.093C1.05464 122.71 2.57233 126.173 5.2626 128.722C7.95196 131.27 11.5933 132.697 15.3847 132.697H126.041C129.832 132.697 133.474 131.27 136.163 128.722C138.853 126.173 140.371 122.71 140.373 119.093V119.092V27.3614ZM48.1617 96.9218V96.4218H47.6617H36.1327H35.6327V96.9218V107.843V108.343H36.1327H47.6617H48.1617V107.843V96.9218ZM76.9738 96.9218V96.4218H76.4738H64.9517H64.4517V96.9218V107.843V108.343H64.9517H76.4738H76.9738V107.843V96.9218ZM105.793 96.9218V96.4218H105.293H93.7638H93.2638V96.9218V107.843V108.343H93.7638H105.293H105.793V107.843V96.9218ZM48.1617 70.8505V70.3505H47.6617H36.1327H35.6327V70.8505V81.772V82.272H36.1327H47.6617H48.1617V81.772V70.8505ZM76.9738 70.8505V70.3505H76.4738H64.9517H64.4517V70.8505V81.772V82.272H64.9517H76.4738H76.9738V81.772V70.8505ZM105.793 70.8505V70.3505H105.293H93.7638H93.2638V70.8505V81.772V82.272H93.7638H105.293H105.793V81.772V70.8505ZM11.7351 119.092V52.34L129.69 52.431V119.092C129.69 119.539 129.597 119.983 129.416 120.397C129.235 120.812 128.969 121.191 128.631 121.511C128.293 121.831 127.891 122.086 127.446 122.261C127.001 122.436 126.524 122.526 126.041 122.526H15.3847C14.9019 122.526 14.4243 122.436 13.9795 122.261C13.5347 122.086 13.1323 121.831 12.7945 121.511C12.4568 121.191 12.1904 120.812 12.0092 120.397C11.828 119.983 11.7351 119.54 11.7351 119.092ZM15.3847 23.9281H35.446V29.4591C35.446 30.8177 36.0156 32.1148 37.02 33.0668C38.0235 34.018 39.379 34.548 40.7872 34.548C42.1954 34.548 43.5509 34.018 44.5544 33.0668C45.5588 32.1148 46.1284 30.8177 46.1284 29.4591V23.9281H97.116V29.5181C97.116 30.8767 97.6856 32.1738 98.69 33.1258C99.6934 34.077 101.049 34.607 102.457 34.607C103.865 34.607 105.221 34.077 106.224 33.1258C107.229 32.1738 107.798 30.8767 107.798 29.5181V23.9281H126.041C126.524 23.9281 127.001 24.0182 127.446 24.1929C127.891 24.3675 128.293 24.6228 128.631 24.943C128.969 25.2631 129.235 25.6417 129.416 26.0564C129.597 26.471 129.69 26.9143 129.69 27.3614V42.2598L11.7351 42.1688V27.3614C11.7351 26.9143 11.828 26.471 12.0092 26.0564C12.1904 25.6417 12.4568 25.2631 12.7945 24.943C13.1323 24.6228 13.5347 24.3675 13.9795 24.1929C14.4243 24.0182 14.9019 23.9281 15.3847 23.9281Z" fill="#FF5900" stroke="#FF5900"/>
</svg>
