<svg width="139" height="133" viewBox="0 0 139 133" fill="none" xmlns="http://www.w3.org/2000/svg">
<path d="M67.7246 29.7745C72.3102 29.7745 76.708 31.5172 79.9505 34.6193C83.1931 37.7215 85.0147 41.9288 85.0147 46.3159C85.0147 48.4881 84.5675 50.6391 83.6986 52.646C82.8296 54.6529 81.5561 56.4764 79.9505 58.0124C78.345 59.5484 76.439 60.7668 74.3412 61.5981C72.2435 62.4294 69.9952 62.8573 67.7246 62.8573C63.139 62.8573 58.7412 61.1145 55.4987 58.0124C52.2562 54.9103 50.4346 50.7029 50.4346 46.3159C50.4346 41.9288 52.2562 37.7215 55.4987 34.6193C58.7412 31.5172 63.139 29.7745 67.7246 29.7745ZM67.7246 0C80.5643 0 92.8781 4.87969 101.957 13.5656C111.036 22.2515 116.137 34.0321 116.137 46.3159C116.137 81.0528 67.7246 132.331 67.7246 132.331C67.7246 132.331 19.3125 81.0528 19.3125 46.3159C19.3125 34.0321 24.413 22.2515 33.4921 13.5656C42.5711 4.87969 54.8849 0 67.7246 0ZM67.7246 13.2331C58.5534 13.2331 49.7578 16.7186 43.2728 22.9228C36.7878 29.127 33.1445 37.5418 33.1445 46.3159C33.1445 52.9324 33.1445 66.1655 67.7246 110.563C102.305 66.1655 102.305 52.9324 102.305 46.3159C102.305 37.5418 98.6615 29.127 92.1765 22.9228C85.6914 16.7186 76.8958 13.2331 67.7246 13.2331Z" fill="#FF5900"/>
</svg>
