<svg width="116" height="111" viewBox="0 0 116 111" fill="none" xmlns="http://www.w3.org/2000/svg">
<mask id="path-1-inside-1_152_994" fill="white">
<path d="M58.2232 0.989258C90.0541 0.989258 115.857 25.4467 115.857 55.6184C115.857 85.7901 90.0541 110.248 58.2232 110.248C26.3923 110.248 0.589844 85.7901 0.589844 55.6184C0.589844 25.4467 26.3923 0.989258 58.2232 0.989258ZM58.2232 11.9151C45.9949 11.9151 34.2675 16.5195 25.6208 24.7155C16.9742 32.9115 12.1165 44.0276 12.1165 55.6184C12.1165 67.2093 16.9742 78.3254 25.6208 86.5213C34.2675 94.7173 45.9949 99.3218 58.2232 99.3218C70.4514 99.3218 82.1788 94.7173 90.8255 86.5213C99.4722 78.3254 104.33 67.2093 104.33 55.6184C104.33 44.0276 99.4722 32.9115 90.8255 24.7155C82.1788 16.5195 70.4514 11.9151 58.2232 11.9151ZM58.2232 22.8409C59.6348 22.8411 60.9973 23.3323 62.0522 24.2215C63.1071 25.1106 63.781 26.3358 63.9462 27.6647L63.9865 28.3038V53.3568L79.5879 68.1449C80.6215 69.128 81.2216 70.4471 81.2663 71.8345C81.311 73.2218 80.7969 74.5732 79.8285 75.6142C78.8601 76.6553 77.5099 77.3079 76.0522 77.4395C74.5945 77.5711 73.1386 77.1719 71.9803 76.3229L71.4385 75.8695L54.1485 59.4807C53.2528 58.6309 52.6775 57.525 52.5117 56.3341L52.4598 55.6184V28.3038C52.4598 26.855 53.0671 25.4655 54.1479 24.441C55.2287 23.4165 56.6947 22.8409 58.2232 22.8409Z"/>
</mask>
<path d="M58.2232 0.989258C90.0541 0.989258 115.857 25.4467 115.857 55.6184C115.857 85.7901 90.0541 110.248 58.2232 110.248C26.3923 110.248 0.589844 85.7901 0.589844 55.6184C0.589844 25.4467 26.3923 0.989258 58.2232 0.989258ZM58.2232 11.9151C45.9949 11.9151 34.2675 16.5195 25.6208 24.7155C16.9742 32.9115 12.1165 44.0276 12.1165 55.6184C12.1165 67.2093 16.9742 78.3254 25.6208 86.5213C34.2675 94.7173 45.9949 99.3218 58.2232 99.3218C70.4514 99.3218 82.1788 94.7173 90.8255 86.5213C99.4722 78.3254 104.33 67.2093 104.33 55.6184C104.33 44.0276 99.4722 32.9115 90.8255 24.7155C82.1788 16.5195 70.4514 11.9151 58.2232 11.9151ZM58.2232 22.8409C59.6348 22.8411 60.9973 23.3323 62.0522 24.2215C63.1071 25.1106 63.781 26.3358 63.9462 27.6647L63.9865 28.3038V53.3568L79.5879 68.1449C80.6215 69.128 81.2216 70.4471 81.2663 71.8345C81.311 73.2218 80.7969 74.5732 79.8285 75.6142C78.8601 76.6553 77.5099 77.3079 76.0522 77.4395C74.5945 77.5711 73.1386 77.1719 71.9803 76.3229L71.4385 75.8695L54.1485 59.4807C53.2528 58.6309 52.6775 57.525 52.5117 56.3341L52.4598 55.6184V28.3038C52.4598 26.855 53.0671 25.4655 54.1479 24.441C55.2287 23.4165 56.6947 22.8409 58.2232 22.8409Z" fill="#FF5900"/>
<path d="M58.2232 11.9151V10.9151V11.9151ZM12.1165 55.6184H11.1165H12.1165ZM58.2232 99.3218V100.322V99.3218ZM104.33 55.6184H105.33H104.33ZM58.2232 22.8409L58.2233 21.8409H58.2232V22.8409ZM63.9462 27.6647L64.9442 27.6017L64.9423 27.5714L64.9385 27.5413L63.9462 27.6647ZM63.9865 28.3038H64.9865V28.2723L64.9845 28.2408L63.9865 28.3038ZM63.9865 53.3568H62.9865V53.7868L63.2986 54.0825L63.9865 53.3568ZM79.5879 68.1449L80.277 67.4203L80.2758 67.4191L79.5879 68.1449ZM71.9803 76.3229L71.3384 77.0897L71.3631 77.1104L71.3891 77.1294L71.9803 76.3229ZM71.4385 75.8695L70.7506 76.5952L70.773 76.6165L70.7967 76.6363L71.4385 75.8695ZM54.1485 59.4807L53.4603 60.2062L53.4606 60.2065L54.1485 59.4807ZM52.5117 56.3341L51.5143 56.4064L51.5167 56.4393L51.5213 56.4719L52.5117 56.3341ZM52.4598 55.6184H51.4598V55.6546L51.4625 55.6907L52.4598 55.6184ZM58.2232 1.98926C89.5529 1.98926 114.857 26.0488 114.857 55.6184H116.857C116.857 24.8447 90.5552 -0.0107422 58.2232 -0.0107422V1.98926ZM114.857 55.6184C114.857 85.1881 89.5529 109.248 58.2232 109.248V111.248C90.5552 111.248 116.857 86.3922 116.857 55.6184H114.857ZM58.2232 109.248C26.8935 109.248 1.58984 85.1881 1.58984 55.6184H-0.410156C-0.410156 86.3922 25.8911 111.248 58.2232 111.248V109.248ZM1.58984 55.6184C1.58984 26.0488 26.8935 1.98926 58.2232 1.98926V-0.0107422C25.8911 -0.0107422 -0.410156 24.8447 -0.410156 55.6184H1.58984ZM58.2232 10.9151C45.7465 10.9151 33.7707 15.6126 24.9329 23.9897L26.3088 25.4413C34.7643 17.4265 46.2434 12.9151 58.2232 12.9151V10.9151ZM24.9329 23.9897C16.0933 32.3686 11.1165 43.7446 11.1165 55.6184H13.1165C13.1165 44.3106 17.8551 33.4543 26.3088 25.4413L24.9329 23.9897ZM11.1165 55.6184C11.1165 67.4923 16.0933 78.8683 24.9329 87.2471L26.3088 85.7956C17.8551 77.7825 13.1165 66.9263 13.1165 55.6184H11.1165ZM24.9329 87.2471C33.7707 95.6243 45.7465 100.322 58.2232 100.322V98.3218C46.2434 98.3218 34.7643 93.8104 26.3088 85.7956L24.9329 87.2471ZM58.2232 100.322C70.6999 100.322 82.6756 95.6243 91.5135 87.2471L90.1376 85.7956C81.682 93.8104 70.203 98.3218 58.2232 98.3218V100.322ZM91.5135 87.2471C100.353 78.8683 105.33 67.4923 105.33 55.6184H103.33C103.33 66.9263 98.5913 77.7825 90.1376 85.7956L91.5135 87.2471ZM105.33 55.6184C105.33 43.7446 100.353 32.3686 91.5135 23.9897L90.1376 25.4413C98.5913 33.4543 103.33 44.3106 103.33 55.6184H105.33ZM91.5135 23.9897C82.6756 15.6126 70.6999 10.9151 58.2232 10.9151V12.9151C70.203 12.9151 81.682 17.4265 90.1376 25.4413L91.5135 23.9897ZM58.2231 23.8409C59.4048 23.8411 60.5376 24.2528 61.4077 24.9861L62.6967 23.4569C61.4569 22.4119 59.8648 21.8411 58.2233 21.8409L58.2231 23.8409ZM61.4077 24.9861C62.2765 25.7184 62.8207 26.7173 62.9538 27.788L64.9385 27.5413C64.7413 25.9543 63.9377 24.5029 62.6967 23.4569L61.4077 24.9861ZM62.9482 27.7277L62.9885 28.3668L64.9845 28.2408L64.9442 27.6017L62.9482 27.7277ZM62.9865 28.3038V53.3568H64.9865V28.3038H62.9865ZM63.2986 54.0825L78.8999 68.8707L80.2758 67.4191L64.6745 52.631L63.2986 54.0825ZM78.8987 68.8695C79.7478 69.6771 80.2308 70.75 80.2668 71.8667L82.2658 71.8023C82.2124 70.1443 81.4952 68.5789 80.277 67.4203L78.8987 68.8695ZM80.2668 71.8667C80.3028 72.9831 79.8899 74.08 79.0963 74.9331L80.5607 76.2953C81.7039 75.0664 82.3192 73.4604 82.2658 71.8023L80.2668 71.8667ZM79.0963 74.9331C78.3012 75.7879 77.1823 76.3334 75.9623 76.4435L76.1421 78.4354C77.8375 78.2824 79.4189 77.5227 80.5607 76.2953L79.0963 74.9331ZM75.9623 76.4435C74.742 76.5537 73.5293 76.2184 72.5714 75.5163L71.3891 77.1294C72.748 78.1254 74.447 78.5885 76.1421 78.4354L75.9623 76.4435ZM72.6221 75.556L72.0803 75.1026L70.7967 76.6363L71.3384 77.0897L72.6221 75.556ZM72.1264 75.1437L54.8364 58.7549L53.4606 60.2065L70.7506 76.5952L72.1264 75.1437ZM54.8368 58.7552C54.1006 58.0569 53.6358 57.1562 53.5022 56.1962L51.5213 56.4719C51.7192 57.8938 52.4049 59.205 53.4603 60.2062L54.8368 58.7552ZM53.5091 56.2618L53.4572 55.5461L51.4625 55.6907L51.5143 56.4064L53.5091 56.2618ZM53.4598 55.6184V28.3038H51.4598V55.6184H53.4598ZM53.4598 28.3038C53.4598 27.138 53.948 26.0083 54.8358 25.1667L53.46 23.7152C52.1862 24.9226 51.4598 26.572 51.4598 28.3038H53.4598ZM54.8358 25.1667C55.7255 24.3234 56.9431 23.8409 58.2232 23.8409V21.8409C56.4462 21.8409 54.7319 22.5095 53.46 23.7152L54.8358 25.1667Z" fill="#FF5900" mask="url(#path-1-inside-1_152_994)"/>
</svg>
