<svg width="113" height="105" viewBox="0 0 113 105" fill="none" xmlns="http://www.w3.org/2000/svg">
<path d="M56.8034 82.8918C66.2546 88.2742 71.3553 78.0016 77.5739 72.7331C107.413 48.7559 86.8438 -0.269317 46.1488 0.961214C13.5302 0.263913 -9.58167 33.11 4.40129 59.539C9.24522 67.8748 17.0751 79.1546 28.7771 77.7555L26.7629 73.1979L13.6712 61.4578V56.7909L18.6864 58.0442C18.9986 57.9621 35.4488 74.5652 38.8476 68.6404C43.2938 62.0092 21.0529 61.1889 21.5514 42.4347C24.9301 2.4014 90.3534 23.3113 65.3483 56.3442L65.3583 56.3351L36.5112 82.9875C33.9785 86.6244 20.1416 92.3851 32.8002 103.004C32.8002 103.004 40.3532 106.928 44.8849 102.371C55.5698 89.5048 64.4822 100.958 71.9243 95.3794C75.9979 88.8439 54.6282 89.2541 50.8517 87.2943L47.9061 82.3175C50.756 82.0669 54.2253 80.4535 56.7984 82.8963L56.8034 82.8918Z" fill="#FF5900"/>
<path d="M111.557 88.8399L91.3745 77.9966C89.5534 77.0142 87.207 77.8971 86.6682 79.7686L85.3176 84.5001C84.9357 84.3011 84.4582 84.2327 83.9739 84.3571L79.0289 85.6441C77.7466 85.9737 77.3305 87.441 78.2718 88.3052L81.8936 91.6254C82.2483 91.9487 82.6985 92.0979 83.1418 92.0979L81.0819 99.2978C80.5977 101.001 82.4052 102.5 84.2195 101.891L111.155 92.8565C113.092 92.2036 113.337 89.7912 111.55 88.8337L111.557 88.8399ZM98.6932 89.2503L84.0626 91.8554C84.4241 91.6503 84.7174 91.3332 84.8402 90.9042L86.1566 86.297C86.1771 86.2348 86.1702 86.1788 86.1771 86.1167L98.9456 87.814C99.6072 87.9633 99.3958 89.1384 98.6864 89.2503H98.6932Z" fill="#FF5900"/>
</svg>
