<svg width="36" height="36" viewBox="0 0 36 36" fill="none" xmlns="http://www.w3.org/2000/svg">
<path d="M10.2988 31.5848V15.791H12.9655C13.1599 15.791 13.3544 15.8132 13.5488 15.8575C13.7433 15.9019 13.9377 15.9526 14.1322 16.0098L25.6738 20.516C26.0627 20.6619 26.3755 20.9244 26.6122 21.3035C26.8488 21.6827 26.9666 22.0764 26.9655 22.4848C26.9655 23.0973 26.7638 23.5931 26.3605 23.9723C25.9572 24.3514 25.4922 24.541 24.9655 24.541H20.5905C20.4516 24.541 20.3477 24.534 20.2788 24.52C20.2099 24.506 20.1194 24.4693 20.0072 24.4098L17.3405 23.316L16.7988 25.0223L20.0072 26.2035C20.0627 26.2327 20.146 26.2549 20.2572 26.27C20.3683 26.2852 20.4655 26.2922 20.5488 26.291H31.9655C32.8544 26.291 33.6322 26.6264 34.2988 27.2973C34.9655 27.9681 35.2988 28.7994 35.2988 29.791L22.0072 35.041L10.2988 31.5848ZM0.298828 35.041V15.791H6.96549V35.041H0.298828ZM25.2988 19.291L18.3822 12.2035C17.521 11.3285 16.7922 10.359 16.1955 9.29502C15.5988 8.23102 15.2999 7.07135 15.2988 5.81602C15.2988 4.21185 15.8338 2.8486 16.9038 1.72627C17.9738 0.603937 19.2722 0.0421875 20.7988 0.0410208C21.6877 0.0410208 22.521 0.238188 23.2988 0.632521C24.0766 1.02685 24.7433 1.55885 25.2988 2.22852C25.8544 1.55769 26.521 1.0251 27.2988 0.630771C28.0766 0.236437 28.9099 0.0398541 29.7988 0.0410208C31.3266 0.0410208 32.6255 0.602771 33.6955 1.72627C34.7655 2.84977 35.2999 4.21302 35.2988 5.81602C35.2988 7.07019 35.0072 8.22985 34.4238 9.29502C33.8405 10.3602 33.1183 11.3297 32.2572 12.2035L25.2988 19.291Z" fill="#F7F7F7"/>
</svg>
