<svg width="36" height="36" viewBox="0 0 36 36" fill="none" xmlns="http://www.w3.org/2000/svg">
<path d="M18.3314 3.45996C26.3858 3.45996 32.9147 9.98892 32.9147 18.0433C32.9147 26.0977 26.3858 32.6266 18.3314 32.6266C10.277 32.6266 3.74805 26.0977 3.74805 18.0433C3.74805 9.98892 10.277 3.45996 18.3314 3.45996ZM24.1705 19.3237C23.6674 18.5581 23.3043 18.0068 21.9218 18.2256C19.3114 18.6398 19.0212 19.0962 18.8972 19.8487L18.8622 20.0762L18.8258 20.3183C18.6843 21.3143 18.6887 21.6906 19.1466 22.1704C20.9914 24.107 22.0968 25.5027 22.4322 26.3193C22.5955 26.7175 23.0155 27.9235 22.7268 29.1164C24.4965 28.4106 26.072 27.2921 27.322 25.8541C27.4824 25.3087 27.5991 24.6291 27.5991 23.8066V23.6535C27.5991 22.3089 27.5991 21.695 26.6483 21.151C26.3431 20.9769 26.0291 20.8187 25.7076 20.677C25.1724 20.4335 24.818 20.2745 24.3397 19.5745C24.2814 19.4919 24.225 19.4083 24.1705 19.3237ZM18.3314 6.13309C14.9524 6.13309 11.9001 7.54184 9.73305 9.80225C9.99117 9.98163 10.2158 10.2339 10.3703 10.581C10.6678 11.2475 10.6678 11.9343 10.6678 12.5425C10.6678 13.0208 10.6678 13.4758 10.821 13.8039C11.031 14.2531 11.938 14.4456 12.7387 14.6118C13.026 14.6731 13.3205 14.7343 13.5889 14.8087C14.3268 15.0129 14.8985 15.6764 15.3549 16.2087C15.5445 16.4289 15.826 16.7541 15.9674 16.8358C16.0403 16.7833 16.2751 16.5281 16.3903 16.1095C16.4808 15.7887 16.4545 15.5058 16.3247 15.3512C15.508 14.3887 15.5533 12.5366 15.8055 11.8527C16.2022 10.775 17.4418 10.8552 18.3489 10.9135C18.6872 10.9354 19.0051 10.9573 19.2443 10.9266C20.1514 10.8129 20.4314 9.43184 20.6283 9.16204C21.0541 8.57871 22.3578 7.69934 23.1658 7.15684C21.6445 6.47857 19.997 6.12968 18.3314 6.13309Z" fill="#F7F7F7"/>
</svg>
