<svg width="191" height="194" viewBox="0 0 191 194" fill="none" xmlns="http://www.w3.org/2000/svg">
<path d="M95.588 153.358C111.547 163.399 120.16 144.235 130.661 134.406C181.047 89.6737 146.314 -1.78843 77.5965 0.507263C22.5169 -0.79363 -16.5099 60.4844 7.10171 109.791C15.2812 125.342 28.5027 146.386 48.2626 143.776L44.8616 135.273L22.7549 113.37V104.664L31.2235 107.002C31.7507 106.849 59.5286 137.824 65.2678 126.77C72.7756 114.399 35.2197 112.869 36.0615 77.8806C41.7667 3.19408 152.241 42.2039 110.017 103.83L110.034 103.813L61.3226 153.536C57.0458 160.322 33.6807 171.069 55.0562 190.88C55.0562 190.88 67.8101 198.2 75.4624 189.698C93.5048 165.695 108.554 187.062 121.121 176.655C128 164.462 91.9148 165.228 85.5379 161.571L80.5639 152.287C85.3764 151.819 91.2346 148.809 95.5795 153.366L95.588 153.358Z" fill="#CC3E02"/>
<path d="M188.045 164.454L153.965 144.225C150.89 142.392 146.928 144.039 146.018 147.531L143.737 156.358C143.092 155.987 142.286 155.859 141.468 156.091L133.118 158.492C130.953 159.107 130.25 161.844 131.84 163.457L137.955 169.651C138.554 170.254 139.314 170.532 140.063 170.532L136.585 183.965C135.767 187.143 138.819 189.938 141.883 188.802L187.366 171.948C190.637 170.73 191.052 166.229 188.034 164.443L188.045 164.454ZM166.323 165.22L141.618 170.08C142.228 169.697 142.724 169.106 142.931 168.305L145.154 159.71C145.188 159.594 145.177 159.49 145.188 159.374L166.749 162.54C167.867 162.819 167.51 165.011 166.312 165.22H166.323Z" fill="#CC3E02"/>
</svg>
