<svg width="43" height="43" viewBox="0 0 43 43" fill="none" xmlns="http://www.w3.org/2000/svg">
<path fill-rule="evenodd" clip-rule="evenodd" d="M16.0595 10.4219C17.0692 8.67188 19.5945 8.67188 20.606 10.4219L26.731 21.0304L28.3095 18.2969C29.3192 16.5469 31.8445 16.5469 32.856 18.2969L40.4335 31.4219C40.6639 31.8209 40.7851 32.2736 40.7851 32.7344C40.7852 33.1951 40.6639 33.6478 40.4335 34.0468C40.2031 34.4459 39.8717 34.7773 39.4727 35.0077C39.0737 35.2381 38.621 35.3594 38.1602 35.3594H30.5827V35.3559L30.4567 35.3594H6.20871C5.74779 35.3597 5.29491 35.2386 4.89562 35.0083C4.49634 34.7781 4.16473 34.4467 3.93414 34.0476C3.70354 33.6485 3.58211 33.1957 3.58203 32.7348C3.58196 32.2739 3.70325 31.821 3.93371 31.4219L16.0595 10.4219ZM14.467 20.1799L15.7077 21.0059L17.3615 19.9034C17.649 19.7115 17.987 19.6091 18.3327 19.6091C18.6784 19.6091 19.0164 19.7115 19.304 19.9034L20.9577 21.0059L22.1985 20.1799L18.3327 13.4844L14.467 20.1799Z" fill="#F7F7F7"/>
</svg>
