<svg width="35" height="36" viewBox="0 0 35 36" fill="none" xmlns="http://www.w3.org/2000/svg">
<path d="M17.5 12.5723C18.6603 12.5723 19.7731 12.1113 20.5936 11.2909C21.4141 10.4704 21.875 9.35759 21.875 8.19727C21.875 7.03694 21.4141 5.92414 20.5936 5.10367C19.7731 4.2832 18.6603 3.82227 17.5 3.82227C16.3397 3.82227 15.2269 4.2832 14.4064 5.10367C13.5859 5.92414 13.125 7.03694 13.125 8.19727C13.125 9.35759 13.5859 10.4704 14.4064 11.2909C15.2269 12.1113 16.3397 12.5723 17.5 12.5723ZM10.9375 8.74414C10.9375 9.24686 10.8385 9.74465 10.6461 10.2091C10.4537 10.6735 10.1717 11.0956 9.81627 11.451C9.46079 11.8065 9.03878 12.0885 8.57434 12.2809C8.10989 12.4732 7.61209 12.5723 7.10938 12.5723C6.60666 12.5723 6.10886 12.4732 5.64442 12.2809C5.17997 12.0885 4.75796 11.8065 4.40248 11.451C4.04701 11.0956 3.76503 10.6735 3.57265 10.2091C3.38027 9.74465 3.28125 9.24686 3.28125 8.74414C3.28125 7.72886 3.68457 6.75516 4.40248 6.03725C5.1204 5.31933 6.09409 4.91602 7.10938 4.91602C8.12466 4.91602 9.09836 5.31933 9.81627 6.03725C10.5342 6.75516 10.9375 7.72886 10.9375 8.74414ZM31.7188 8.74414C31.7188 9.24686 31.6197 9.74465 31.4274 10.2091C31.235 10.6735 30.953 11.0956 30.5975 11.451C30.242 11.8065 29.82 12.0885 29.3556 12.2809C28.8911 12.4732 28.3933 12.5723 27.8906 12.5723C27.3879 12.5723 26.8901 12.4732 26.4257 12.2809C25.9612 12.0885 25.5392 11.8065 25.1837 11.451C24.8283 11.0956 24.5463 10.6735 24.3539 10.2091C24.1615 9.74465 24.0625 9.24686 24.0625 8.74414C24.0625 7.72886 24.4658 6.75516 25.1837 6.03725C25.9016 5.31933 26.8753 4.91602 27.8906 4.91602C28.9059 4.91602 29.8796 5.31933 30.5975 6.03725C31.3154 6.75516 31.7187 7.72886 31.7188 8.74414ZM10.2561 14.7598C9.63347 15.5349 9.29497 16.4999 9.29688 17.4941V25.6973C9.29688 27.048 9.62281 28.3223 10.2014 29.4455C9.36783 29.8839 8.43518 30.0995 7.4938 30.0715C6.55243 30.0435 5.63423 29.7729 4.82815 29.2859C4.02207 28.7988 3.35542 28.1119 2.89279 27.2915C2.43016 26.4712 2.18722 25.5453 2.1875 24.6035V17.4941C2.1875 16.7689 2.47559 16.0734 2.98838 15.5606C3.50117 15.0479 4.19667 14.7598 4.92188 14.7598H10.2561ZM24.7986 29.4455C25.3936 28.2857 25.7037 27.0008 25.7031 25.6973V17.4941C25.7031 16.4595 25.3444 15.509 24.7439 14.7598H30.0781C30.8033 14.7598 31.4988 15.0479 32.0116 15.5606C32.5244 16.0734 32.8125 16.7689 32.8125 17.4941V24.6035C32.8128 25.5453 32.5698 26.4712 32.1072 27.2915C31.6446 28.1119 30.9779 28.7988 30.1719 29.2859C29.3658 29.7729 28.4476 30.0435 27.5062 30.0715C26.5648 30.0995 25.6322 29.8839 24.7986 29.4455ZM13.6719 14.7598C12.9467 14.7598 12.2512 15.0479 11.7384 15.5606C11.2256 16.0734 10.9375 16.7689 10.9375 17.4941V25.6973C10.9375 27.4377 11.6289 29.1069 12.8596 30.3377C14.0903 31.5684 15.7595 32.2598 17.5 32.2598C19.2405 32.2598 20.9097 31.5684 22.1404 30.3377C23.3711 29.1069 24.0625 27.4377 24.0625 25.6973V17.4941C24.0625 16.7689 23.7744 16.0734 23.2616 15.5606C22.7488 15.0479 22.0533 14.7598 21.3281 14.7598H13.6719Z" fill="#F7F7F7"/>
</svg>
