<svg width="38" height="45" viewBox="0 0 38 45" fill="none" xmlns="http://www.w3.org/2000/svg">
<path d="M35.8135 10.5421C33.6365 10.0615 31.6651 8.87588 30.1868 7.15801C28.7084 5.44014 27.8004 3.27987 27.5952 0.99212V0H20.0853V30.758C20.0806 32.1197 19.6627 33.4456 18.8901 34.5495C18.1176 35.6534 17.0293 36.4798 15.7782 36.9125C14.5272 37.3452 13.1761 37.3625 11.9151 36.9619C10.654 36.5613 9.54619 35.763 8.7474 34.6792C7.93621 33.5773 7.48622 32.2373 7.46269 30.8536C7.43916 29.47 7.84331 28.1145 8.61653 26.9839C9.38976 25.8532 10.4919 25.0061 11.763 24.5655C13.0342 24.1248 14.4083 24.1134 15.6861 24.533V16.6591C12.8366 16.2525 9.93528 16.7754 7.38788 18.1544C4.84048 19.5334 2.77445 21.6996 1.47878 24.3501C0.183114 27.0006 -0.277393 30.0027 0.161676 32.9366C0.600744 35.8705 1.91743 38.5893 3.92756 40.7129C5.8445 42.7371 8.30244 44.1259 10.9876 44.7019C13.6728 45.278 16.4634 45.0152 19.0033 43.9472C21.5431 42.8791 23.7169 41.0542 25.2472 38.7055C26.7776 36.3567 27.595 33.5906 27.5952 30.7602V15.0438C30.6302 17.283 34.2692 18.4837 38 18.4768V10.7761C37.2653 10.777 36.5324 10.6986 35.8135 10.5421Z" fill="#F7F7F7"/>
</svg>
