<svg width="983" height="239" viewBox="0 0 983 239" fill="none" xmlns="http://www.w3.org/2000/svg">
<path d="M258.283 84.1418H357.797V102.397H318.674V205.041H297.146V102.397H258.191V84.1348H258.276L258.283 84.1418ZM353.549 117.496H371.946V134.395H372.29C372.9 132.005 374.024 129.699 375.674 127.478C379.202 122.717 383.977 119.026 389.471 116.815C392.261 115.707 395.233 115.128 398.234 115.106C400.481 115.106 402.138 115.191 403.008 115.282C403.872 115.366 404.736 115.535 405.691 115.62V134.219C404.282 133.973 402.865 133.773 401.443 133.622C400.03 133.455 398.61 133.37 397.188 133.369C393.888 133.369 390.77 134.051 387.821 135.337C384.872 136.609 382.351 138.571 380.189 141.052C377.881 143.826 376.114 147.009 374.979 150.436C373.68 154.19 373.069 158.45 373.069 163.321V204.956H353.465V117.496H353.549ZM495.839 205.048H476.579V192.845H476.228C473.798 197.287 470.246 200.788 465.471 203.431C460.696 206.074 455.838 207.438 450.895 207.438C439.183 207.438 430.673 204.626 425.477 198.904C420.267 193.189 417.662 184.571 417.662 173.05V117.503H437.273V171.173C437.273 178.856 438.747 184.318 441.788 187.474C444.737 190.63 448.985 192.254 454.363 192.254C458.527 192.254 461.911 191.657 464.685 190.37C467.465 189.091 469.719 187.474 471.369 185.337C473.103 183.292 474.318 180.733 475.104 177.83C475.877 174.927 476.228 171.77 476.228 168.361V117.588H495.839V205.048ZM529.24 176.979C529.85 182.603 532.013 186.539 535.748 188.838C539.561 191.059 544.076 192.254 549.37 192.254C551.196 192.254 553.274 192.078 555.619 191.825C557.957 191.565 560.211 190.968 562.212 190.209C564.291 189.435 565.934 188.24 567.324 186.708C568.63 185.161 569.234 183.207 569.149 180.733C569.138 179.585 568.885 178.451 568.408 177.407C567.93 176.363 567.237 175.432 566.376 174.674C564.635 173.057 562.472 171.862 559.776 170.836C556.772 169.794 553.698 168.967 550.578 168.361C547.109 167.679 543.641 166.906 540.088 166.14C536.508 165.365 532.974 164.395 529.499 163.237C526.241 162.191 523.167 160.637 520.393 158.632C517.689 156.743 515.484 154.225 513.968 151.294C512.325 148.306 511.539 144.637 511.539 140.201C511.539 135.421 512.753 131.499 515.098 128.251C517.464 125.031 520.518 122.38 524.037 120.491C527.819 118.489 531.884 117.079 536.093 116.308C540.516 115.542 544.771 115.113 548.759 115.113C553.358 115.113 557.782 115.627 561.952 116.568C565.99 117.434 569.839 119.022 573.313 121.257C576.697 123.394 579.471 126.206 581.732 129.622C583.986 133.031 585.376 137.214 585.98 142.078H565.505C564.55 137.474 562.465 134.318 559.088 132.778C555.703 131.162 551.799 130.388 547.46 130.388C546.07 130.388 544.42 130.473 542.517 130.733C540.684 130.977 538.879 131.405 537.132 132.012C535.534 132.601 534.085 133.532 532.884 134.739C532.301 135.37 531.847 136.109 531.55 136.915C531.252 137.72 531.116 138.577 531.149 139.435C531.149 141.825 532.013 143.702 533.663 145.15C535.313 146.598 537.483 147.793 540.172 148.819C542.861 149.761 545.901 150.612 549.37 151.294C552.839 151.976 556.391 152.742 560.043 153.515C563.595 154.281 567.064 155.308 570.54 156.411C574.008 157.522 577.042 159.061 579.738 161.022C582.427 162.984 584.597 165.374 586.24 168.277C587.89 171.173 588.76 174.842 588.76 179.109C588.76 184.311 587.546 188.669 585.109 192.338C582.687 195.923 579.562 198.904 575.743 201.125C571.744 203.431 567.411 205.101 562.9 206.074C558.311 207.085 553.627 207.599 548.928 207.606C543.665 207.666 538.418 207.035 533.319 205.73C528.545 204.45 524.381 202.573 520.912 200.106C517.484 197.612 514.666 194.372 512.669 190.63C510.675 186.877 509.629 182.35 509.46 177.148H529.24V176.979ZM593.963 117.51H608.799V91.2204H628.41V117.51H646.104V131.921H628.417V178.687C628.417 180.726 628.502 182.441 628.677 183.974C628.846 185.429 629.281 186.708 629.892 187.727C630.555 188.798 631.563 189.611 632.749 190.033C634.055 190.546 635.699 190.806 637.959 190.806C639.343 190.806 640.733 190.806 642.123 190.715C643.513 190.63 644.897 190.462 646.287 190.117V205.048C644.117 205.308 641.948 205.476 639.953 205.73C637.851 205.974 635.736 206.089 633.62 206.074C628.417 206.074 624.254 205.561 621.122 204.626C618.005 203.684 615.484 202.236 613.75 200.359C611.924 198.482 610.801 196.177 610.105 193.358C609.429 190.188 609.053 186.961 608.982 183.72V132.082H594.146V117.489H593.97L593.963 117.51ZM659.986 117.51H678.557V129.362H678.908C681.675 124.245 685.494 120.66 690.438 118.445C695.49 116.196 700.966 115.06 706.496 115.113C713.517 115.113 719.591 116.308 724.8 118.783C730.003 121.173 734.343 124.505 737.811 128.765C741.28 133.031 743.8 137.98 745.535 143.618C747.302 149.482 748.18 155.579 748.14 161.704C748.14 167.588 747.36 173.303 745.795 178.772C744.357 184.047 741.975 189.017 738.766 193.442C735.612 197.708 731.515 201.184 726.795 203.6C721.936 206.158 716.298 207.438 709.704 207.438C706.822 207.435 703.946 207.176 701.11 206.664C698.281 206.154 695.518 205.326 692.874 204.197C690.247 203.1 687.791 201.632 685.579 199.839C683.396 198.095 681.494 196.026 679.941 193.702H679.589V237.39H659.986V117.496V117.51ZM728.529 161.36C728.533 157.469 728.008 153.595 726.97 149.846C726.009 146.293 724.42 142.941 722.28 139.948C720.249 137.101 717.613 134.739 714.563 133.031C711.287 131.259 707.614 130.35 703.891 130.388C695.647 130.388 689.398 133.2 685.235 138.838C681.071 144.468 678.986 151.983 678.986 161.36C678.986 165.795 679.512 169.894 680.636 173.647C681.759 177.401 683.325 180.649 685.579 183.376C687.755 186.11 690.353 188.24 693.394 189.773C696.427 191.397 699.987 192.163 703.975 192.163C708.49 192.163 712.218 191.228 715.343 189.435C718.368 187.693 720.974 185.305 722.975 182.441C724.969 179.538 726.451 176.29 727.314 172.628C728.113 168.925 728.52 165.148 728.529 161.36ZM763.144 84.1418H782.755V102.404H763.144V84.1418ZM763.144 117.503H782.755V205.048H763.144V117.503ZM800.281 84.1418H819.892V205.048H800.281V84.1418ZM880.016 207.438C872.896 207.438 866.563 206.243 861.016 203.944C855.698 201.761 850.885 198.507 846.875 194.384C842.976 190.178 839.99 185.21 838.105 179.791C836.041 173.81 835.016 167.519 835.072 161.191C835.072 154.534 836.111 148.398 838.105 142.76C839.991 137.344 842.977 132.378 846.875 128.174C850.688 124.076 855.462 120.92 861.016 118.614C866.563 116.308 872.896 115.113 880.016 115.113C887.129 115.113 893.462 116.308 899.016 118.614C904.57 120.92 909.253 124.167 913.157 128.174C917.055 132.376 920.039 137.343 921.92 142.76C923.914 148.391 924.953 154.534 924.953 161.191C924.953 167.939 923.914 174.16 921.92 179.791C920.04 185.211 917.056 190.18 913.157 194.384C909.338 198.482 904.57 201.638 899.016 203.944C893.462 206.243 887.129 207.438 880.016 207.438ZM880.016 192.163C884.355 192.163 888.168 191.228 891.377 189.435C894.504 187.692 897.203 185.271 899.276 182.35C901.354 179.454 902.829 176.122 903.875 172.452C904.83 168.783 905.349 165.029 905.349 161.191C905.349 157.437 904.83 153.768 903.875 150.014C902.981 146.454 901.42 143.095 899.276 140.117C897.199 137.223 894.5 134.833 891.377 133.123C888.168 131.33 884.355 130.388 880.016 130.388C875.677 130.388 871.857 131.33 868.648 133.123C865.546 134.859 862.854 137.245 860.756 140.117C858.642 143.113 857.084 146.466 856.157 150.014C855.196 153.663 854.699 157.418 854.676 161.191C854.676 165.029 855.202 168.783 856.157 172.452C857.112 176.122 858.671 179.454 860.756 182.35C862.835 185.253 865.44 187.643 868.648 189.435C871.857 191.312 875.677 192.163 880.016 192.163ZM930.683 117.51H945.519V91.2204H965.13V117.51H982.824V131.921H965.13V178.687C965.13 180.726 965.214 182.441 965.383 183.974C965.558 185.429 965.993 186.708 966.604 187.727C967.267 188.799 968.275 189.613 969.462 190.033C970.768 190.546 972.411 190.806 974.672 190.806C976.055 190.806 977.445 190.806 978.836 190.715C980.226 190.63 981.609 190.462 982.999 190.117V205.048C980.83 205.308 978.66 205.476 976.666 205.73C974.564 205.974 972.449 206.089 970.333 206.074C965.13 206.074 960.959 205.561 957.835 204.626C954.717 203.684 952.196 202.236 950.462 200.359C948.644 198.482 947.513 196.177 946.818 193.358C946.143 190.188 945.767 186.961 945.695 183.72V132.082H930.858V117.489H930.683V117.51Z" fill="black"/>
<path d="M235.379 84.135H145.498L117.735 0L89.8743 84.1421L0 84.0507L72.7911 136.096L44.9442 220.14L117.735 168.179L190.442 220.14L162.679 136.096L235.379 84.135Z" fill="#04DA8D"/>
<path d="M168.921 155.132L162.672 136.104L117.734 168.186L168.921 155.132Z" fill="#126849"/>
</svg>
